<svg width="24" height="24" viewBox="0 0 24 24" fill="none" xmlns="http://www.w3.org/2000/svg">
<path d="M11 13.5134V20.2292C10.6434 20.0288 10.2263 19.7335 9.6748 19.3396L6.6748 17.196C5.85388 16.6097 5.44331 16.3162 5.22168 15.8855C5.00017 15.4548 5 14.95 5 13.9412V10.0583C5 9.7371 5.00066 9.46701 5.00781 9.23413L11 13.5134ZM18.9912 9.23413C18.9984 9.46701 19 9.73709 19 10.0583V13.9412C19 14.95 18.9998 15.4548 18.7783 15.8855C18.5567 16.3162 18.1461 16.6097 17.3252 17.196L14.3252 19.3396C13.7737 19.7335 13.3566 20.0288 13 20.2292V13.5134L18.9912 9.23413ZM12 3.45776C12.6409 3.45776 13.2025 3.85897 14.3252 4.66089L17.3252 6.80347C17.6532 7.03773 17.9149 7.22614 18.126 7.39429L12 11.7712L5.87305 7.39429C6.08424 7.22602 6.34653 7.03795 6.6748 6.80347L9.6748 4.66089C10.7975 3.85897 11.3591 3.45776 12 3.45776Z" fill="#222222"/>
</svg>
